<?xml version="1.0" encoding="UTF-8"?>
<!DOCTYPE svg PUBLIC "-//W3C//DTD SVG 1.1//EN" "http://www.w3.org/Graphics/SVG/1.1/DTD/svg11.dtd">
<!-- Creator: CorelDRAW -->
<svg xmlns="http://www.w3.org/2000/svg" xml:space="preserve" width="250mm" height="100mm" version="1.1" style="shape-rendering:geometricPrecision; text-rendering:geometricPrecision; image-rendering:optimizeQuality; fill-rule:evenodd; clip-rule:evenodd"
viewBox="0 0 25000 10000"
 xmlns:xlink="http://www.w3.org/1999/xlink"
 xmlns:xodm="http://www.corel.com/coreldraw/odm/2003">
 <defs>
  <style type="text/css">
   <![CDATA[
    .str1 {stroke:#373435;stroke-width:70.56;stroke-miterlimit:22.9256}
    .str0 {stroke:black;stroke-width:70.56;stroke-linejoin:bevel;stroke-miterlimit:22.9256}
    .fil0 {fill:none}
   ]]>
  </style>
    <clipPath id="id0">
     <rect x="14151.88" y="3460.01" width="483.03" height="483.02"/>
    </clipPath>
    <clipPath id="id1">
     <rect x="14151.88" y="3460.01" width="483.03" height="483.02"/>
    </clipPath>
 </defs>
 <g id="Camada_x0020_1">
  <metadata id="CorelCorpID_0Corel-Layer"/>
  <g id="_2086408694128">
   <path class="fil0 str0" d="M1893.95 6914.39c-878.96,-696.8 -1356.49,-1710.16 -1335.53,-2832.12 4127.44,-748.19 8308.78,-1073.42 12502.35,-970.45 1.62,72.01 51.14,122.29 123.15,123.2 72.02,0.91 123.57,-48.62 125.74,-120.64 31.58,-0.16 61.91,0.95 93.49,0.8 5.39,68.19 54.9,114.69 123.12,115.61 68.23,0.93 118.53,-46.07 124.51,-113.05 32.85,-0.17 66.96,-0.34 99.81,0.76 2.87,69.47 53.64,117.23 123.13,118.15 69.49,0.92 121.05,-46.08 124.5,-115.59 31.58,-0.15 63.16,-0.31 94.75,0.8 1.61,69.47 52.4,119.75 121.88,119.41 70.75,0.91 122.31,-47.35 125.75,-116.85 32.85,-0.17 64.44,0.94 97.29,0.78 0.35,72.01 51.14,122.29 121.89,123.2 72.01,0.91 123.57,-48.62 125.73,-120.64 32.86,1.1 65.7,0.93 98.56,2.03 1.61,70.74 52.39,121.03 123.15,121.94 72.01,-0.36 123.56,-49.89 124.47,-120.64 495.27,7.65 990.55,17.82 1484.59,31.79 1053.79,30.14 2106.4,77.97 3157.85,147.29 974.36,64.64 1948.82,148.24 2920.85,252.06 613.06,66.44 1224.89,140.46 1836.72,214.49 -217.77,412.93 -568.65,735.56 -936.16,1015.33 -1040.86,789.71 -2208.58,1221.26 -3560.56,1437.69 -931.61,148.65 -1950.91,194.14 -2920.99,228.01 -1074.94,35.66 -2088.04,57.12 -3034.12,90.88 -61.89,2.83 -125.05,4.41 -281.68,10.24 -0.53,-107.38 -54.04,-198.08 -146.53,-250.68 -92.48,-51.34 -199.85,-49.54 -290.54,6.5 -90.68,54.77 -140.75,148.51 -136.44,254.61 -188.22,3.46 -375.18,6.91 -563.4,10.38 -139.79,-673.94 -624.8,-1160.45 -1298.86,-1299.86 -674.06,-139.41 -1313.32,113.91 -1708.49,675.54 -2588.73,-26.31 -5158.05,295.97 -7659.98,959.03"/>
   <path class="fil0 str0" d="M2760.82 5430.7c126.33,-0.63 229.41,-104.74 228.78,-231.07 -0.63,-127.59 -104.73,-229.41 -231.07,-228.78 -127.59,0.63 -229.41,103.47 -228.78,231.07 0.63,126.33 103.47,229.41 231.07,228.78z"/>
   <path class="fil0 str0" d="M6806.83 4821.88c127.6,-0.63 229.41,-104.73 228.78,-231.07 -0.63,-127.59 -103.47,-229.41 -231.06,-228.78 -126.33,0.63 -229.42,103.47 -228.78,231.07 0.62,126.33 104.73,229.41 231.06,228.78z"/>
   <path class="fil0 str0" d="M10885.53 4433.99c127.59,-0.64 229.41,-103.47 228.78,-231.07 -0.63,-126.33 -103.47,-229.42 -231.07,-228.78 -126.33,0.63 -229.41,104.73 -228.78,231.06 0.64,127.6 104.74,229.41 231.07,228.79z"/>
   <path class="fil0 str1" d="M12112.27 5729.38c241.69,-397.76 483.36,-795.51 607.69,-1232.54 124.35,-437.04 131.34,-913.35 138.33,-1389.66"/>
   <path class="fil0 str1" d="M13124.7 6569.3c154.96,-998.6 309.92,-1997.2 426.67,-2509.61 116.79,-512.39 195.36,-538.58 559.44,-610.07 319.66,-62.76 859.41,-160.43 1425.97,-262.36"/>
   <g style="clip-path:url(#id0)">
    <image id="Kaowz_x0020_Logo_x0020_OK.jpg" x="14151.88" y="3460.01" width="483.02" height="483.03" xlink:href="Edc svg_Images\Edc svg_ImgID1.png"/>
   </g>
   <path class="fil0 str1" d="M24431.7 3776.72c-2263.11,-117.59 -4526.22,-235.19 -6092.89,-342.8 -1566.67,-107.6 -2436.89,-205.22 -3307.12,-302.84"/>
   <path class="fil0 str0" d="M2760.82 5430.7c126.33,-0.63 229.41,-104.74 228.78,-231.07 -0.63,-127.59 -104.73,-229.41 -231.07,-228.78 -127.59,0.63 -229.41,103.47 -228.78,231.07 0.63,126.33 103.47,229.41 231.07,228.78z"/>
   <path class="fil0 str0" d="M6806.83 4821.88c127.6,-0.63 229.41,-104.73 228.78,-231.07 -0.63,-127.59 -103.47,-229.41 -231.06,-228.78 -126.33,0.63 -229.42,103.47 -228.78,231.07 0.62,126.33 104.73,229.41 231.06,228.78z"/>
   <path class="fil0 str0" d="M10885.53 4433.99c127.59,-0.64 229.41,-103.47 228.78,-231.07 -0.63,-126.33 -103.47,-229.42 -231.07,-228.78 -126.33,0.63 -229.41,104.73 -228.78,231.06 0.64,127.6 104.74,229.41 231.07,228.79z"/>
   <path class="fil0 str1" d="M12112.27 5729.38c241.69,-397.76 483.36,-795.51 607.69,-1232.54 124.35,-437.04 131.34,-913.35 138.33,-1389.66"/>
   <path class="fil0 str1" d="M13124.7 6569.3c154.96,-998.6 309.92,-1997.2 426.67,-2509.61 116.79,-512.39 195.36,-538.58 559.44,-610.07 319.66,-62.76 859.41,-160.43 1425.97,-262.36"/>
   <g style="clip-path:url(#id1)">
    <image id="Kaowz_x0020_Logo_x0020_OK.jpg_0" x="14151.88" y="3460.01" width="483.02" height="483.03" xlink:href="Edc svg_Images\Edc svg_ImgID2.png"/>
   </g>
  </g>
 </g>
</svg>
