<?xml version="1.0" encoding="UTF-8"?>
<!DOCTYPE svg PUBLIC "-//W3C//DTD SVG 1.1//EN" "http://www.w3.org/Graphics/SVG/1.1/DTD/svg11.dtd">
<!-- Creator: CorelDRAW -->
<svg xmlns="http://www.w3.org/2000/svg" xml:space="preserve" width="250mm" height="100mm" version="1.1" style="shape-rendering:geometricPrecision; text-rendering:geometricPrecision; image-rendering:optimizeQuality; fill-rule:evenodd; clip-rule:evenodd"
viewBox="0 0 25000 10000"
 xmlns:xlink="http://www.w3.org/1999/xlink"
 xmlns:xodm="http://www.corel.com/coreldraw/odm/2003">
 <defs>
  <style type="text/css">
   <![CDATA[
    .str1 {stroke:#373435;stroke-width:70.56;stroke-miterlimit:22.9256}
    .str0 {stroke:black;stroke-width:70.56;stroke-linejoin:bevel;stroke-miterlimit:22.9256}
    .fil0 {fill:none}
   ]]>
  </style>
   <clipPath id="id0">
    <rect x="14817.85" y="4020.29" width="414.5" height="414.51"/>
   </clipPath>
   <clipPath id="id1">
    <rect x="14817.85" y="4020.29" width="414.5" height="414.51"/>
   </clipPath>
 </defs>
 <g id="Camada_x0020_1">
  <metadata id="CorelCorpID_0Corel-Layer"/>
  <path class="fil0 str0" d="M4298.76 6984.65c-754.28,-597.95 -1164.06,-1467.56 -1146.08,-2430.36 3541.94,-642.06 7130.14,-921.16 10728.83,-832.79 1.39,61.79 43.89,104.94 105.69,105.72 61.8,0.78 106.04,-41.72 107.9,-103.53 27.1,-0.13 53.12,0.82 80.23,0.69 4.62,58.52 47.1,98.42 105.65,99.21 58.55,0.8 101.71,-39.53 106.85,-97.01 28.18,-0.14 57.46,-0.29 85.65,0.65 2.46,59.62 46.03,100.6 105.66,101.39 59.63,0.79 103.88,-39.55 106.84,-99.19 27.1,-0.13 54.21,-0.27 81.31,0.68 1.38,59.62 44.96,102.77 104.59,102.47 60.72,0.79 104.96,-40.63 107.92,-100.27 28.18,-0.14 55.29,0.81 83.48,0.67 0.3,61.79 43.88,104.94 104.6,105.72 61.8,0.78 106.04,-41.72 107.9,-103.53 28.19,0.95 56.38,0.81 84.57,1.75 1.39,60.71 44.97,103.86 105.68,104.64 61.8,-0.31 106.04,-42.81 106.82,-103.52 425.01,6.56 850.04,15.29 1274,27.28 904.29,25.86 1807.59,66.91 2709.88,126.39 836.15,55.47 1672.38,127.21 2506.52,216.3 526.09,57.02 1051.13,120.54 1576.17,184.07 -186.88,354.35 -487.98,631.22 -803.36,871.3 -893.21,677.68 -1895.29,1048.01 -3055.47,1233.74 -799.46,127.57 -1674.17,166.6 -2506.64,195.67 -922.45,30.61 -1791.84,49.02 -2603.72,77.99 -53.11,2.43 -107.31,3.78 -241.71,8.79 -0.46,-92.15 -46.38,-169.98 -125.75,-215.12 -79.36,-44.06 -171.5,-42.52 -249.32,5.57 -77.83,47.01 -120.79,127.45 -117.09,218.49 -161.52,2.97 -321.96,5.94 -483.48,8.91 -119.96,-578.33 -536.17,-995.83 -1114.61,-1115.46 -578.44,-119.64 -1127.02,97.75 -1466.13,579.71 -2221.51,-22.58 -4426.36,253.99 -6573.38,822.98"/>
  <path class="fil0 str0" d="M5042.66 5711.43c108.41,-0.54 196.87,-89.87 196.33,-198.29 -0.55,-109.49 -89.88,-196.86 -198.29,-196.32 -109.49,0.54 -196.87,88.79 -196.33,198.28 0.54,108.42 88.8,196.88 198.29,196.33z"/>
  <path class="fil0 str0" d="M8514.73 5188.98c109.49,-0.55 196.86,-89.88 196.33,-198.29 -0.55,-109.5 -88.8,-196.87 -198.29,-196.33 -108.41,0.54 -196.87,88.79 -196.33,198.29 0.54,108.41 89.88,196.87 198.29,196.33z"/>
  <path class="fil0 str0" d="M12014.84 4856.11c109.5,-0.55 196.87,-88.79 196.33,-198.29 -0.54,-108.41 -88.8,-196.87 -198.29,-196.33 -108.41,0.54 -196.87,89.88 -196.33,198.29 0.55,109.5 89.88,196.87 198.29,196.33z"/>
  <path class="fil0 str1" d="M13067.57 5967.74c207.4,-341.33 414.78,-682.66 521.48,-1057.7 106.71,-375.03 112.71,-783.78 118.71,-1192.52"/>
  <path class="fil0 str1" d="M13936.37 6688.52c132.98,-856.95 265.96,-1713.89 366.15,-2153.61 100.22,-439.71 167.65,-462.18 480.08,-523.53 274.31,-53.86 737.5,-137.67 1223.69,-225.14"/>
  <g style="clip-path:url(#id0)">
   <image id="Kaowz_x0020_Logo_x0020_OK.jpg" x="14817.85" y="4020.29" width="414.51" height="414.51" xlink:href="Edc svg_Images\Edc svg_ImgID1.png"/>
  </g>
  <path class="fil0 str1" d="M23639.42 4292.08c-1942.08,-100.91 -3884.15,-201.83 -5228.58,-294.17 -1344.43,-92.34 -2091.21,-176.11 -2837.99,-259.88"/>
  <path class="fil0 str0" d="M5042.66 5711.43c108.41,-0.54 196.87,-89.87 196.33,-198.29 -0.55,-109.49 -89.88,-196.86 -198.29,-196.32 -109.49,0.54 -196.87,88.79 -196.33,198.28 0.54,108.42 88.8,196.88 198.29,196.33z"/>
  <path class="fil0 str0" d="M8514.73 5188.98c109.49,-0.55 196.86,-89.88 196.33,-198.29 -0.55,-109.5 -88.8,-196.87 -198.29,-196.33 -108.41,0.54 -196.87,88.79 -196.33,198.29 0.54,108.41 89.88,196.87 198.29,196.33z"/>
  <path class="fil0 str0" d="M12014.84 4856.11c109.5,-0.55 196.87,-88.79 196.33,-198.29 -0.54,-108.41 -88.8,-196.87 -198.29,-196.33 -108.41,0.54 -196.87,89.88 -196.33,198.29 0.55,109.5 89.88,196.87 198.29,196.33z"/>
  <path class="fil0 str1" d="M13067.57 5967.74c207.4,-341.33 414.78,-682.66 521.48,-1057.7 106.71,-375.03 112.71,-783.78 118.71,-1192.52"/>
  <path class="fil0 str1" d="M13936.37 6688.52c132.98,-856.95 265.96,-1713.89 366.15,-2153.61 100.22,-439.71 167.65,-462.18 480.08,-523.53 274.31,-53.86 737.5,-137.67 1223.69,-225.14"/>
  <g style="clip-path:url(#id1)">
   <image id="Kaowz_x0020_Logo_x0020_OK.jpg_0" x="14817.85" y="4020.29" width="414.51" height="414.51" xlink:href="Edc svg_Images\Edc svg_ImgID2.png"/>
  </g>
 </g>
</svg>
